<mxfile host="app.diagrams.net" modified="2022-03-26T18:26:12.592Z" agent="5.0 (X11)" etag="5BgSn9RhsZR6-71DC06Y" version="15.5.8" type="github">
  <diagram id="kgpKYQtTHZ0yAKxKKP6v" name="Page-1">
    <mxGraphModel dx="1952" dy="604" grid="1" gridSize="10" guides="1" tooltips="1" connect="1" arrows="1" fold="1" page="1" pageScale="1" pageWidth="850" pageHeight="1100" math="0" shadow="0">
      <root>
        <mxCell id="0" />
        <mxCell id="1" parent="0" />
        <mxCell id="3nuBFxr9cyL0pnOWT2aG-1" value="" style="shape=table;childLayout=tableLayout;startSize=40;collapsible=0;recursiveResize=0;expand=0;fillColor=none;fontStyle=1" parent="1" vertex="1">
          <mxGeometry x="-60" y="70" width="1000" height="1500" as="geometry" />
        </mxCell>
        <mxCell id="3nuBFxr9cyL0pnOWT2aG-3" value="" style="shape=tableRow;horizontal=0;swimlaneHead=0;swimlaneBody=0;top=0;left=0;bottom=0;right=0;fillColor=none;points=[[0,0.5],[1,0.5]];portConstraint=eastwest;startSize=40;collapsible=0;recursiveResize=0;expand=0;fontStyle=1;" parent="3nuBFxr9cyL0pnOWT2aG-1" vertex="1">
          <mxGeometry y="40" width="1000" height="1460" as="geometry" />
        </mxCell>
        <mxCell id="3nuBFxr9cyL0pnOWT2aG-4" value="Tracker" style="swimlane;swimlaneHead=0;swimlaneBody=0;connectable=0;fillColor=none;startSize=40;collapsible=0;recursiveResize=0;expand=0;fontStyle=1;" parent="3nuBFxr9cyL0pnOWT2aG-3" vertex="1">
          <mxGeometry width="200" height="1460" as="geometry">
            <mxRectangle width="200" height="1460" as="alternateBounds" />
          </mxGeometry>
        </mxCell>
        <mxCell id="-Wg5E6yIQ6_IQyJF35NC-36" value="Update list of peers" style="whiteSpace=wrap;html=1;rounded=0;glass=0;arcSize=50;" parent="3nuBFxr9cyL0pnOWT2aG-4" vertex="1">
          <mxGeometry x="40" y="320" width="120" height="60" as="geometry" />
        </mxCell>
        <mxCell id="-Wg5E6yIQ6_IQyJF35NC-38" value="&lt;div&gt;Broadcast updated list to all peers&lt;/div&gt;&lt;div&gt;(ZMQ PUB)&lt;/div&gt;" style="whiteSpace=wrap;html=1;rounded=0;glass=0;arcSize=50;" parent="3nuBFxr9cyL0pnOWT2aG-4" vertex="1">
          <mxGeometry x="40" y="460" width="120" height="60" as="geometry" />
        </mxCell>
        <mxCell id="-Wg5E6yIQ6_IQyJF35NC-39" value="" style="edgeStyle=orthogonalEdgeStyle;rounded=0;orthogonalLoop=1;jettySize=auto;html=1;" parent="3nuBFxr9cyL0pnOWT2aG-4" source="-Wg5E6yIQ6_IQyJF35NC-36" target="-Wg5E6yIQ6_IQyJF35NC-38" edge="1">
          <mxGeometry relative="1" as="geometry" />
        </mxCell>
        <mxCell id="-Wg5E6yIQ6_IQyJF35NC-58" value="Start" style="rounded=1;whiteSpace=wrap;html=1;arcSize=50;" parent="3nuBFxr9cyL0pnOWT2aG-4" vertex="1">
          <mxGeometry x="55" y="70" width="90" height="40" as="geometry" />
        </mxCell>
        <mxCell id="3nuBFxr9cyL0pnOWT2aG-8" value="Peer" style="swimlane;swimlaneHead=0;swimlaneBody=0;connectable=0;fillColor=none;startSize=40;collapsible=0;recursiveResize=0;expand=0;fontStyle=1;" parent="3nuBFxr9cyL0pnOWT2aG-3" vertex="1">
          <mxGeometry x="200" width="600" height="1460" as="geometry">
            <mxRectangle width="600" height="1460" as="alternateBounds" />
          </mxGeometry>
        </mxCell>
        <mxCell id="3nuBFxr9cyL0pnOWT2aG-6" value="Start" style="rounded=1;whiteSpace=wrap;html=1;arcSize=50;" parent="3nuBFxr9cyL0pnOWT2aG-8" vertex="1">
          <mxGeometry x="255" y="70" width="90" height="40" as="geometry" />
        </mxCell>
        <mxCell id="-Wg5E6yIQ6_IQyJF35NC-44" value="&lt;div&gt;Listen for peer list updates&lt;/div&gt;&lt;div&gt;(ZMQ SUB)&lt;/div&gt;" style="whiteSpace=wrap;html=1;rounded=0;glass=0;arcSize=50;" parent="3nuBFxr9cyL0pnOWT2aG-8" vertex="1">
          <mxGeometry x="40" y="460" width="120" height="60" as="geometry" />
        </mxCell>
        <mxCell id="3nuBFxr9cyL0pnOWT2aG-14" value="End" style="rounded=1;whiteSpace=wrap;html=1;arcSize=50;" parent="3nuBFxr9cyL0pnOWT2aG-8" vertex="1">
          <mxGeometry x="460" y="70" width="90" height="40" as="geometry" />
        </mxCell>
        <mxCell id="wjNufGtqsJr1eFAkO-c2-26" value="" style="edgeStyle=orthogonalEdgeStyle;rounded=0;orthogonalLoop=1;jettySize=auto;html=1;" edge="1" parent="3nuBFxr9cyL0pnOWT2aG-8" source="wjNufGtqsJr1eFAkO-c2-23" target="wjNufGtqsJr1eFAkO-c2-25">
          <mxGeometry relative="1" as="geometry" />
        </mxCell>
        <mxCell id="wjNufGtqsJr1eFAkO-c2-29" value="" style="edgeStyle=orthogonalEdgeStyle;rounded=0;orthogonalLoop=1;jettySize=auto;html=1;" edge="1" parent="3nuBFxr9cyL0pnOWT2aG-8" source="wjNufGtqsJr1eFAkO-c2-25" target="wjNufGtqsJr1eFAkO-c2-28">
          <mxGeometry relative="1" as="geometry" />
        </mxCell>
        <mxCell id="wjNufGtqsJr1eFAkO-c2-15" value="Wait for `get file` request" style="whiteSpace=wrap;html=1;rounded=0;glass=0;arcSize=50;" vertex="1" parent="3nuBFxr9cyL0pnOWT2aG-8">
          <mxGeometry x="240" y="460" width="120" height="60" as="geometry" />
        </mxCell>
        <mxCell id="wjNufGtqsJr1eFAkO-c2-19" value="&lt;div&gt;File&lt;/div&gt;&lt;div&gt;available in&lt;/div&gt;&lt;div&gt;cache?&lt;/div&gt;" style="rhombus;whiteSpace=wrap;html=1;rounded=0;glass=0;arcSize=50;" vertex="1" parent="3nuBFxr9cyL0pnOWT2aG-8">
          <mxGeometry x="260" y="590" width="80" height="80" as="geometry" />
        </mxCell>
        <mxCell id="wjNufGtqsJr1eFAkO-c2-20" value="" style="edgeStyle=orthogonalEdgeStyle;rounded=0;orthogonalLoop=1;jettySize=auto;html=1;" edge="1" parent="3nuBFxr9cyL0pnOWT2aG-8" source="wjNufGtqsJr1eFAkO-c2-15" target="wjNufGtqsJr1eFAkO-c2-19">
          <mxGeometry relative="1" as="geometry" />
        </mxCell>
        <mxCell id="wjNufGtqsJr1eFAkO-c2-23" value="&lt;div&gt;File&lt;/div&gt;&lt;div&gt;available&lt;/div&gt;&lt;div&gt;in peer file&lt;/div&gt;&lt;div&gt;table?&lt;br&gt;&lt;/div&gt;" style="rhombus;whiteSpace=wrap;html=1;rounded=0;glass=0;arcSize=50;" vertex="1" parent="3nuBFxr9cyL0pnOWT2aG-8">
          <mxGeometry x="260" y="730" width="80" height="80" as="geometry" />
        </mxCell>
        <mxCell id="wjNufGtqsJr1eFAkO-c2-24" value="" style="edgeStyle=orthogonalEdgeStyle;rounded=0;orthogonalLoop=1;jettySize=auto;html=1;" edge="1" parent="3nuBFxr9cyL0pnOWT2aG-8" source="wjNufGtqsJr1eFAkO-c2-19" target="wjNufGtqsJr1eFAkO-c2-23">
          <mxGeometry relative="1" as="geometry" />
        </mxCell>
        <mxCell id="wjNufGtqsJr1eFAkO-c2-37" style="edgeStyle=orthogonalEdgeStyle;rounded=0;orthogonalLoop=1;jettySize=auto;html=1;exitX=1;exitY=0.5;exitDx=0;exitDy=0;entryX=0;entryY=0.5;entryDx=0;entryDy=0;shape=flexArrow;fillColor=default;" edge="1" parent="3nuBFxr9cyL0pnOWT2aG-8" source="wjNufGtqsJr1eFAkO-c2-25" target="wjNufGtqsJr1eFAkO-c2-3">
          <mxGeometry relative="1" as="geometry" />
        </mxCell>
        <mxCell id="wjNufGtqsJr1eFAkO-c2-25" value="&lt;div&gt;Send file request to corresponding peer&lt;/div&gt;&lt;div&gt;(ZMQ REQ)&lt;br&gt;&lt;/div&gt;" style="whiteSpace=wrap;html=1;rounded=0;glass=0;arcSize=50;" vertex="1" parent="3nuBFxr9cyL0pnOWT2aG-8">
          <mxGeometry x="240" y="880" width="120" height="60" as="geometry" />
        </mxCell>
        <mxCell id="wjNufGtqsJr1eFAkO-c2-28" value="&lt;div&gt;Get file from peer&lt;/div&gt;&lt;div&gt;(ZMQ REQ)&lt;br&gt;&lt;/div&gt;" style="whiteSpace=wrap;html=1;rounded=0;glass=0;arcSize=50;" vertex="1" parent="3nuBFxr9cyL0pnOWT2aG-8">
          <mxGeometry x="240" y="1160" width="120" height="60" as="geometry" />
        </mxCell>
        <mxCell id="wjNufGtqsJr1eFAkO-c2-3" value="&lt;div&gt;Listen for file requests from peers&lt;/div&gt;&lt;div&gt;(ZMQ REP)&lt;br&gt;&lt;/div&gt;" style="whiteSpace=wrap;html=1;rounded=0;glass=0;arcSize=50;" vertex="1" parent="3nuBFxr9cyL0pnOWT2aG-8">
          <mxGeometry x="440" y="880" width="120" height="60" as="geometry" />
        </mxCell>
        <mxCell id="wjNufGtqsJr1eFAkO-c2-5" value="&lt;div&gt;Get file from local cache&lt;/div&gt;" style="whiteSpace=wrap;html=1;rounded=0;glass=0;arcSize=50;" vertex="1" parent="3nuBFxr9cyL0pnOWT2aG-8">
          <mxGeometry x="440" y="1020" width="120" height="60" as="geometry" />
        </mxCell>
        <mxCell id="wjNufGtqsJr1eFAkO-c2-34" style="edgeStyle=orthogonalEdgeStyle;rounded=0;orthogonalLoop=1;jettySize=auto;html=1;exitX=1;exitY=0.5;exitDx=0;exitDy=0;entryX=1;entryY=0.5;entryDx=0;entryDy=0;" edge="1" parent="3nuBFxr9cyL0pnOWT2aG-8" source="wjNufGtqsJr1eFAkO-c2-7" target="wjNufGtqsJr1eFAkO-c2-3">
          <mxGeometry relative="1" as="geometry" />
        </mxCell>
        <mxCell id="wjNufGtqsJr1eFAkO-c2-39" style="edgeStyle=orthogonalEdgeStyle;shape=flexArrow;rounded=0;orthogonalLoop=1;jettySize=auto;html=1;exitX=0;exitY=0.5;exitDx=0;exitDy=0;entryX=1;entryY=0.5;entryDx=0;entryDy=0;fillColor=default;" edge="1" parent="3nuBFxr9cyL0pnOWT2aG-8" source="wjNufGtqsJr1eFAkO-c2-7" target="wjNufGtqsJr1eFAkO-c2-28">
          <mxGeometry relative="1" as="geometry" />
        </mxCell>
        <mxCell id="wjNufGtqsJr1eFAkO-c2-7" value="&lt;div&gt;Send file to requesting peer&lt;/div&gt;&lt;div&gt;(ZMQ REP)&lt;br&gt;&lt;/div&gt;" style="whiteSpace=wrap;html=1;rounded=0;glass=0;arcSize=50;" vertex="1" parent="3nuBFxr9cyL0pnOWT2aG-8">
          <mxGeometry x="440" y="1160" width="120" height="60" as="geometry" />
        </mxCell>
        <mxCell id="wjNufGtqsJr1eFAkO-c2-6" value="" style="edgeStyle=orthogonalEdgeStyle;rounded=0;orthogonalLoop=1;jettySize=auto;html=1;" edge="1" parent="3nuBFxr9cyL0pnOWT2aG-8" source="wjNufGtqsJr1eFAkO-c2-3" target="wjNufGtqsJr1eFAkO-c2-5">
          <mxGeometry relative="1" as="geometry" />
        </mxCell>
        <mxCell id="wjNufGtqsJr1eFAkO-c2-8" value="" style="edgeStyle=orthogonalEdgeStyle;rounded=0;orthogonalLoop=1;jettySize=auto;html=1;" edge="1" parent="3nuBFxr9cyL0pnOWT2aG-8" source="wjNufGtqsJr1eFAkO-c2-5" target="wjNufGtqsJr1eFAkO-c2-7">
          <mxGeometry relative="1" as="geometry" />
        </mxCell>
        <mxCell id="3nuBFxr9cyL0pnOWT2aG-11" value="Server" style="swimlane;swimlaneHead=0;swimlaneBody=0;connectable=0;fillColor=none;startSize=40;collapsible=0;recursiveResize=0;expand=0;fontStyle=1;" parent="3nuBFxr9cyL0pnOWT2aG-3" vertex="1">
          <mxGeometry x="800" width="200" height="1460" as="geometry">
            <mxRectangle width="200" height="1460" as="alternateBounds" />
          </mxGeometry>
        </mxCell>
        <mxCell id="-Wg5E6yIQ6_IQyJF35NC-65" style="edgeStyle=orthogonalEdgeStyle;rounded=0;orthogonalLoop=1;jettySize=auto;html=1;exitX=1;exitY=0.5;exitDx=0;exitDy=0;entryX=0;entryY=0.5;entryDx=0;entryDy=0;shape=flexArrow;fillColor=default;" parent="3nuBFxr9cyL0pnOWT2aG-3" source="-Wg5E6yIQ6_IQyJF35NC-38" target="-Wg5E6yIQ6_IQyJF35NC-44" edge="1">
          <mxGeometry relative="1" as="geometry" />
        </mxCell>
        <mxCell id="-Wg5E6yIQ6_IQyJF35NC-41" value="" style="edgeStyle=orthogonalEdgeStyle;rounded=0;orthogonalLoop=1;jettySize=auto;html=1;" parent="1" source="-Wg5E6yIQ6_IQyJF35NC-34" target="-Wg5E6yIQ6_IQyJF35NC-40" edge="1">
          <mxGeometry relative="1" as="geometry" />
        </mxCell>
        <mxCell id="-Wg5E6yIQ6_IQyJF35NC-63" style="edgeStyle=orthogonalEdgeStyle;rounded=0;orthogonalLoop=1;jettySize=auto;html=1;exitX=0;exitY=0.5;exitDx=0;exitDy=0;entryX=1;entryY=0.5;entryDx=0;entryDy=0;shape=flexArrow;fillColor=default;" parent="1" source="-Wg5E6yIQ6_IQyJF35NC-34" target="-Wg5E6yIQ6_IQyJF35NC-60" edge="1">
          <mxGeometry relative="1" as="geometry" />
        </mxCell>
        <mxCell id="-Wg5E6yIQ6_IQyJF35NC-34" value="&lt;div&gt;Send connect request to tracker&lt;/div&gt;&lt;div&gt;(ZMQ REQ)&lt;br&gt;&lt;/div&gt;" style="whiteSpace=wrap;html=1;rounded=0;arcSize=50;glass=0;" parent="1" vertex="1">
          <mxGeometry x="380" y="290" width="120" height="60" as="geometry" />
        </mxCell>
        <mxCell id="-Wg5E6yIQ6_IQyJF35NC-35" value="" style="edgeStyle=orthogonalEdgeStyle;rounded=0;orthogonalLoop=1;jettySize=auto;html=1;" parent="1" source="3nuBFxr9cyL0pnOWT2aG-6" target="-Wg5E6yIQ6_IQyJF35NC-34" edge="1">
          <mxGeometry relative="1" as="geometry" />
        </mxCell>
        <mxCell id="-Wg5E6yIQ6_IQyJF35NC-45" value="" style="edgeStyle=orthogonalEdgeStyle;rounded=0;orthogonalLoop=1;jettySize=auto;html=1;dashed=1;" parent="1" source="-Wg5E6yIQ6_IQyJF35NC-40" target="-Wg5E6yIQ6_IQyJF35NC-44" edge="1">
          <mxGeometry relative="1" as="geometry" />
        </mxCell>
        <mxCell id="wjNufGtqsJr1eFAkO-c2-35" style="edgeStyle=orthogonalEdgeStyle;rounded=0;orthogonalLoop=1;jettySize=auto;html=1;exitX=0.5;exitY=1;exitDx=0;exitDy=0;entryX=0.5;entryY=0;entryDx=0;entryDy=0;" edge="1" parent="1" source="-Wg5E6yIQ6_IQyJF35NC-40" target="wjNufGtqsJr1eFAkO-c2-15">
          <mxGeometry relative="1" as="geometry" />
        </mxCell>
        <mxCell id="wjNufGtqsJr1eFAkO-c2-36" style="edgeStyle=orthogonalEdgeStyle;rounded=0;orthogonalLoop=1;jettySize=auto;html=1;exitX=1;exitY=0.5;exitDx=0;exitDy=0;dashed=1;" edge="1" parent="1" source="-Wg5E6yIQ6_IQyJF35NC-40" target="wjNufGtqsJr1eFAkO-c2-3">
          <mxGeometry relative="1" as="geometry" />
        </mxCell>
        <mxCell id="-Wg5E6yIQ6_IQyJF35NC-40" value="&lt;div&gt;Start new threads&lt;/div&gt;" style="whiteSpace=wrap;html=1;rounded=1;glass=0;arcSize=50;" parent="1" vertex="1">
          <mxGeometry x="380" y="430" width="120" height="60" as="geometry" />
        </mxCell>
        <mxCell id="-Wg5E6yIQ6_IQyJF35NC-64" style="edgeStyle=orthogonalEdgeStyle;rounded=0;orthogonalLoop=1;jettySize=auto;html=1;exitX=0.5;exitY=1;exitDx=0;exitDy=0;entryX=0.5;entryY=0;entryDx=0;entryDy=0;" parent="1" source="-Wg5E6yIQ6_IQyJF35NC-60" target="-Wg5E6yIQ6_IQyJF35NC-36" edge="1">
          <mxGeometry relative="1" as="geometry" />
        </mxCell>
        <mxCell id="-Wg5E6yIQ6_IQyJF35NC-60" value="&lt;div&gt;Listen for peer updates&lt;/div&gt;&lt;div&gt;(ZMQ REP)&lt;br&gt;&lt;/div&gt;" style="whiteSpace=wrap;html=1;rounded=0;glass=0;arcSize=50;" parent="1" vertex="1">
          <mxGeometry x="-20" y="290" width="120" height="60" as="geometry" />
        </mxCell>
        <mxCell id="-Wg5E6yIQ6_IQyJF35NC-62" style="edgeStyle=orthogonalEdgeStyle;rounded=0;orthogonalLoop=1;jettySize=auto;html=1;exitX=0.5;exitY=1;exitDx=0;exitDy=0;entryX=0.5;entryY=0;entryDx=0;entryDy=0;" parent="1" source="-Wg5E6yIQ6_IQyJF35NC-58" target="-Wg5E6yIQ6_IQyJF35NC-60" edge="1">
          <mxGeometry relative="1" as="geometry" />
        </mxCell>
        <mxCell id="-Wg5E6yIQ6_IQyJF35NC-66" style="edgeStyle=orthogonalEdgeStyle;rounded=0;orthogonalLoop=1;jettySize=auto;html=1;exitX=0;exitY=0.5;exitDx=0;exitDy=0;entryX=0;entryY=0.5;entryDx=0;entryDy=0;" parent="1" source="-Wg5E6yIQ6_IQyJF35NC-38" target="-Wg5E6yIQ6_IQyJF35NC-60" edge="1">
          <mxGeometry relative="1" as="geometry" />
        </mxCell>
        <mxCell id="-Wg5E6yIQ6_IQyJF35NC-70" value="" style="edgeStyle=orthogonalEdgeStyle;rounded=0;orthogonalLoop=1;jettySize=auto;html=1;fillColor=default;" parent="1" source="-Wg5E6yIQ6_IQyJF35NC-67" target="-Wg5E6yIQ6_IQyJF35NC-69" edge="1">
          <mxGeometry relative="1" as="geometry" />
        </mxCell>
        <mxCell id="-Wg5E6yIQ6_IQyJF35NC-67" value="Create SUB and REQ sockets for each new peer" style="whiteSpace=wrap;html=1;rounded=0;glass=0;arcSize=50;" parent="1" vertex="1">
          <mxGeometry x="180" y="710" width="120" height="60" as="geometry" />
        </mxCell>
        <mxCell id="-Wg5E6yIQ6_IQyJF35NC-68" value="" style="edgeStyle=orthogonalEdgeStyle;rounded=0;orthogonalLoop=1;jettySize=auto;html=1;fillColor=default;" parent="1" source="-Wg5E6yIQ6_IQyJF35NC-44" target="-Wg5E6yIQ6_IQyJF35NC-67" edge="1">
          <mxGeometry relative="1" as="geometry" />
        </mxCell>
        <mxCell id="-Wg5E6yIQ6_IQyJF35NC-71" style="edgeStyle=orthogonalEdgeStyle;rounded=0;orthogonalLoop=1;jettySize=auto;html=1;exitX=1;exitY=0.5;exitDx=0;exitDy=0;entryX=1;entryY=0.5;entryDx=0;entryDy=0;fillColor=default;" parent="1" source="-Wg5E6yIQ6_IQyJF35NC-69" target="-Wg5E6yIQ6_IQyJF35NC-44" edge="1">
          <mxGeometry relative="1" as="geometry" />
        </mxCell>
        <mxCell id="-Wg5E6yIQ6_IQyJF35NC-73" value="" style="edgeStyle=orthogonalEdgeStyle;rounded=0;orthogonalLoop=1;jettySize=auto;html=1;fillColor=default;dashed=1;" parent="1" source="-Wg5E6yIQ6_IQyJF35NC-69" target="-Wg5E6yIQ6_IQyJF35NC-72" edge="1">
          <mxGeometry relative="1" as="geometry" />
        </mxCell>
        <mxCell id="-Wg5E6yIQ6_IQyJF35NC-69" value="&lt;div&gt;Start a thread for each new peer&lt;br&gt;&lt;/div&gt;" style="whiteSpace=wrap;html=1;rounded=1;glass=0;arcSize=50;" parent="1" vertex="1">
          <mxGeometry x="180" y="850" width="120" height="60" as="geometry" />
        </mxCell>
        <mxCell id="wjNufGtqsJr1eFAkO-c2-10" value="" style="edgeStyle=orthogonalEdgeStyle;rounded=0;orthogonalLoop=1;jettySize=auto;html=1;" edge="1" parent="1" source="-Wg5E6yIQ6_IQyJF35NC-72" target="wjNufGtqsJr1eFAkO-c2-9">
          <mxGeometry relative="1" as="geometry" />
        </mxCell>
        <mxCell id="-Wg5E6yIQ6_IQyJF35NC-72" value="&lt;div&gt;Listen for file list updates&lt;/div&gt;&lt;div&gt;(ZMQ SUB)&lt;br&gt;&lt;/div&gt;" style="whiteSpace=wrap;html=1;rounded=0;glass=0;arcSize=50;" parent="1" vertex="1">
          <mxGeometry x="180" y="990" width="120" height="60" as="geometry" />
        </mxCell>
        <mxCell id="wjNufGtqsJr1eFAkO-c2-12" style="edgeStyle=orthogonalEdgeStyle;rounded=0;orthogonalLoop=1;jettySize=auto;html=1;exitX=0;exitY=0.5;exitDx=0;exitDy=0;entryX=0;entryY=0.5;entryDx=0;entryDy=0;" edge="1" parent="1" source="wjNufGtqsJr1eFAkO-c2-9" target="-Wg5E6yIQ6_IQyJF35NC-72">
          <mxGeometry relative="1" as="geometry" />
        </mxCell>
        <mxCell id="wjNufGtqsJr1eFAkO-c2-9" value="Update local peer file table" style="whiteSpace=wrap;html=1;rounded=0;glass=0;arcSize=50;" vertex="1" parent="1">
          <mxGeometry x="180" y="1130" width="120" height="60" as="geometry" />
        </mxCell>
      </root>
    </mxGraphModel>
  </diagram>
</mxfile>
